HIERARCHY
ROOT Pelvis
{
	OFFSET 0.000000 0.000000 0.000000
	CHANNELS 6 Xposition Yposition Zposition Xrotation Yrotation Zrotation
	JOINT LeftUpLeg_virtual
	{
		OFFSET 0.000000 0.000000 0.000000
		CHANNELS 3 Xrotation Yrotation Zrotation
		JOINT LeftUpLeg
		{
			OFFSET 18.735201 -5.666702 -4.541200
			CHANNELS 3 Xrotation Yrotation Zrotation
			JOINT LeftLeg
			{
				OFFSET -0.021200 -31.938179 0.493100
				CHANNELS 3 Xrotation Yrotation Zrotation
				JOINT LeftFoot
				{
					OFFSET 0.021200 -31.938179 -4.336299
					CHANNELS 3 Xrotation Yrotation Zrotation
					JOINT LeftToeBase
					{
						OFFSET 0.943001 -26.722000 15.023500
						CHANNELS 3 Xrotation Yrotation Zrotation
						End Site
						{
							OFFSET 0 0 0
						}
					}
				}
			}
		}
	}
	JOINT RightUpLeg_virtual
	{
		OFFSET 0.000000 0.000000 0.000000
		CHANNELS 3 Xrotation Yrotation Zrotation
		JOINT RightUpLeg
		{
			OFFSET -18.735201 -5.666702 -4.541200
			CHANNELS 3 Xrotation Yrotation Zrotation
			JOINT RightLeg
			{
				OFFSET 0.018946 -31.938133 0.493100
				CHANNELS 3 Xrotation Yrotation Zrotation
				JOINT RightFoot
				{
					OFFSET -0.018946 -31.938126 -4.336299
					CHANNELS 3 Xrotation Yrotation Zrotation
					JOINT RightToeBase
					{
						OFFSET -0.943001 -26.722004 15.023500
						CHANNELS 3 Xrotation Yrotation Zrotation
						End Site
						{
							OFFSET 0 0 0
						}
					}
				}
			}
		}
	}
	JOINT Hips_virtual
	{
		OFFSET 0.000000 0.000000 0.000000
		CHANNELS 3 Xrotation Yrotation Zrotation
		JOINT Hips
		{
			OFFSET -0.000000 -0.000000 -0.000000
			CHANNELS 3 Xrotation Yrotation Zrotation
			JOINT Spine
			{
				OFFSET 0.000000 10.199997 -0.299500
				CHANNELS 3 Xrotation Yrotation Zrotation
				JOINT Spine1
				{
					OFFSET 0.000000 11.900002 -1.516600
					CHANNELS 3 Xrotation Yrotation Zrotation
					JOINT Spine2
					{
						OFFSET 0.000000 13.600006 -2.842500
						CHANNELS 3 Xrotation Yrotation Zrotation
						JOINT Neck_virtual
						{
							OFFSET 0.000000 0.000000 0.000000
							CHANNELS 3 Xrotation Yrotation Zrotation
							JOINT Neck
							{
								OFFSET 0.000000 9.624100 -2.890100
								CHANNELS 3 Xrotation Yrotation Zrotation
								JOINT Head
								{
									OFFSET 0.000000 14.068802 -1.351900
									CHANNELS 3 Xrotation Yrotation Zrotation
									End Site
									{
										OFFSET 0 0 0
									}
								}
							}
						}
						JOINT LeftShoulder_virtual
						{
							OFFSET 0.000000 0.000000 0.000000
							CHANNELS 3 Xrotation Yrotation Zrotation
							JOINT LeftShoulder
							{
								OFFSET 15.263000 10.923401 -0.547700
								CHANNELS 3 Xrotation Yrotation Zrotation
								JOINT LeftArm
								{
									OFFSET 25.438599 -2.830597 -13.032500
									CHANNELS 3 Xrotation Yrotation Zrotation
									JOINT LeftForeArm
									{
										OFFSET 29.960503 0.000000 0.000000
										CHANNELS 3 Xrotation Yrotation Zrotation
										JOINT LeftHand
										{
											OFFSET 27.849251 0.000000 0.000000
											CHANNELS 3 Xrotation Yrotation Zrotation
											End Site
											{
												OFFSET 0 0 0
											}
										}
									}
								}
							}
						}
						JOINT RightShoulder_virtual
						{
							OFFSET 0.000000 0.000000 0.000000
							CHANNELS 3 Xrotation Yrotation Zrotation
							JOINT RightShoulder
							{
								OFFSET -15.263000 10.923401 -0.547700
								CHANNELS 3 Xrotation Yrotation Zrotation
								JOINT RightArm
								{
									OFFSET -25.438599 -2.830597 -13.032500
									CHANNELS 3 Xrotation Yrotation Zrotation
									JOINT RightForeArm
									{
										OFFSET -29.960503 0.000000 0.000000
										CHANNELS 3 Xrotation Yrotation Zrotation
										JOINT RightHand
										{
											OFFSET -27.849251 0.000000 0.000000
											CHANNELS 3 Xrotation Yrotation Zrotation
											End Site
											{
												OFFSET 0 0 0
											}
										}
									}
								}
							}
						}
					}
				}
			}
		}
	}
}
MOTION
Frames: 4
Frame Time: 0.03333333
2.140974 93.002686 15.032650 0.000000 0.000000 0.000000 4.071644 36.481693 -2.823963 -31.166088 5.788312 5.239942 24.675763 -35.280888 -5.020141 -2.364359 -6.089759 1.587640 0.000000 0.000000 0.000000 4.071644 36.481693 -2.823963 -20.469180 14.937989 0.955680 28.367990 12.616374 0.956349 -11.921687 2.494502 0.230156 0.000000 0.000000 0.000000 4.071644 36.481693 -2.823963 0.000000 -0.000002 0.000000 7.112209 0.524375 -2.366497 1.179945 0.647741 1.438047 0.000000 0.000000 0.000000 1.171142 0.823284 1.416790 -0.583332 5.149272 -1.668765 0.000000 0.000000 0.000000 1.171142 0.823284 1.416790 -0.063459 -2.703538 -0.486094 -58.743834 21.372246 -22.798862 10.391522 -75.898346 11.787541 0.000000 0.000000 0.000000 1.171142 0.823284 1.416790 4.836707 8.975272 6.727819 10.740034 17.144863 61.498409 10.869378 22.267136 -5.100404 0.000000 0.000000 0.000000 
1.626553 93.047409 15.244566 0.000000 0.000000 0.000000 4.330037 39.304641 -3.274341 -31.685814 5.992470 5.887482 23.820047 -38.637561 -5.216965 -2.666063 -4.096463 0.750131 0.000000 0.000000 0.000000 4.330037 39.304641 -3.274341 -19.687856 13.947943 1.545554 28.113458 11.528222 0.871100 -12.231918 1.467357 -0.460442 0.000000 0.000000 0.000000 4.330037 39.304641 -3.274341 0.000000 0.000000 0.000000 7.213651 0.392435 -2.561390 1.139008 0.472331 1.508120 0.000000 0.000000 0.000000 1.129821 0.657995 1.495978 -0.581826 4.951254 -1.671110 0.000000 0.000000 0.000000 1.129821 0.657995 1.495978 -0.098273 -4.304834 -0.130151 -58.723473 20.289164 -23.609845 9.881779 -75.007061 11.444815 0.000000 0.000000 0.000000 1.129821 0.657995 1.495978 4.845230 8.887822 6.669461 9.629283 15.060109 62.090279 10.941260 22.517802 -5.122155 0.000000 0.000000 0.000000 
1.081266 93.055397 15.358496 0.000000 0.000000 0.000000 4.732125 41.601907 -3.884268 -32.208071 6.521054 7.149771 23.629070 -37.455907 -4.872522 -3.018313 -4.358154 -0.372172 0.000000 0.000000 0.000000 4.732125 41.601907 -3.884268 -19.306071 13.143830 2.201060 27.757517 10.212630 0.776238 -12.275366 0.986794 -0.872220 0.000000 0.000000 0.000000 4.732125 41.601907 -3.884268 0.000000 0.000000 0.000000 7.288295 0.341716 -2.697434 1.074960 0.409436 1.547330 0.000000 0.000000 0.000000 1.065680 0.600864 1.538320 -0.597445 4.764804 -1.633192 0.000000 0.000000 0.000000 1.065680 0.600864 1.538320 -0.137371 -5.857322 0.179680 -58.765124 19.401613 -24.164863 9.711236 -74.412944 11.445053 0.000000 0.000000 0.000000 1.065680 0.600864 1.538320 4.849109 8.873615 6.578573 8.499952 12.815125 62.567340 10.948436 22.781411 -5.092087 0.000000 0.000000 0.000000 
0.524338 93.053070 15.409779 0.000000 0.000000 0.000000 5.169287 43.586217 -4.532826 -32.600759 6.596077 8.615970 23.287984 -35.273849 -4.724534 -3.323223 -4.260850 -1.560380 0.000000 0.000000 0.000000 5.169287 43.586217 -4.532826 -19.103011 12.369754 2.825649 27.361594 9.165951 0.703413 -12.172904 0.543731 -1.234452 0.000000 0.000000 0.000000 5.169287 43.586217 -4.532826 0.000000 0.000000 0.000000 7.372684 0.332579 -2.823154 1.021576 0.402673 1.586730 0.000000 0.000000 0.000000 1.011853 0.599494 1.577683 -0.628439 4.589330 -1.591164 0.000000 0.000000 0.000000 1.011853 0.599494 1.577683 -0.156236 -7.215462 0.446557 -58.915012 18.233871 -24.765110 9.439932 -73.554403 11.301856 0.000000 0.000000 0.000000 1.011853 0.599494 1.577683 4.849869 8.905620 6.467974 7.348093 10.428521 62.949592 10.867225 23.018805 -5.002917 0.000000 0.000000 0.000000 
